<svg xmlns="http://www.w3.org/2000/svg" width="680" height="385" viewBox="0 0 680 385" role="img"><title>UAE kidney logo</title><desc>A narrow kidney silhouette that draws itself in and fills with the United Arab Emirates flag, rendered as vertical slices that ripple like cloth. A red renal artery carries particles inward and a green ureter carries particles out, each ending in a matching round terminal, while the whole mark pulses slowly.</desc><defs><clipPath id="kc2"><path d="M 359 80 C 296 80, 250 130, 250 195 C 250 260, 296 305, 355 305 C 386 305, 410 290, 417 270 C 424 254, 413 240, 402 234 C 386 226, 374 215, 374 195 C 374 175, 386 163, 402 155 C 415 148, 424 134, 417 118 C 409 96, 384 80, 359 80 Z"/></clipPath><path id="art2" d="M 402 190 C 452 185, 476 160, 480 122"/><path id="ure2" d="M 402 205 C 448 205, 474 230, 474 268 C 474 292, 464 308, 448 318"/></defs><g transform="translate(337,192)"><g><animateTransform attributeName="transform" type="scale" values="1;1.03;1" keyTimes="0;0.5;1" calcMode="spline" keySplines=".4 0 .6 1;.4 0 .6 1" dur="3.6s" repeatCount="indefinite"/><g transform="translate(-337,-192)"><use href="#art2" fill="none" stroke="#CE1126" stroke-width="9" stroke-linecap="round" stroke-dasharray="120" stroke-dashoffset="120"><animate attributeName="stroke-dashoffset" from="120" to="0" begin="1.2s" dur="0.8s" fill="freeze"/></use><use href="#ure2" fill="none" stroke="#00732F" stroke-width="9" stroke-linecap="round" stroke-dasharray="170" stroke-dashoffset="170"><animate attributeName="stroke-dashoffset" from="170" to="0" begin="1.4s" dur="0.9s" fill="freeze"/></use><circle cx="480" cy="122" r="11" fill="#CE1126" opacity="0"><animate attributeName="opacity" from="0" to="1" begin="2.15s" dur="0.4s" fill="freeze"/></circle><circle cx="448" cy="322" r="11" fill="#00732F" opacity="0"><animate attributeName="opacity" from="0" to="1" begin="2.3s" dur="0.4s" fill="freeze"/></circle><g clip-path="url(#kc2)"><g opacity="0"><animate attributeName="opacity" from="0" to="1" begin="0.6s" dur="0.4s" fill="freeze"/><animateTransform attributeName="transform" type="translate" values="0 0;0 -5;0 0;0 5;0 0" dur="3s" begin="0s" repeatCount="indefinite"/><rect x="244" y="40" width="13" height="320" fill="#CE1126"/></g><g opacity="0"><animate attributeName="opacity" from="0" to="1" begin="0.68s" dur="0.4s" fill="freeze"/><animateTransform attributeName="transform" type="translate" values="0 0;0 -5;0 0;0 5;0 0" dur="3s" begin="-0.14s" repeatCount="indefinite"/><rect x="256" y="40" width="13" height="320" fill="#CE1126"/></g><g opacity="0"><animate attributeName="opacity" from="0" to="1" begin="0.76s" dur="0.4s" fill="freeze"/><animateTransform attributeName="transform" type="translate" values="0 0;0 -5;0 0;0 5;0 0" dur="3s" begin="-0.28s" repeatCount="indefinite"/><rect x="268" y="40" width="13" height="320" fill="#CE1126"/></g><g opacity="0"><animate attributeName="opacity" from="0" to="1" begin="0.84s" dur="0.4s" fill="freeze"/><animateTransform attributeName="transform" type="translate" values="0 0;0 -5;0 0;0 5;0 0" dur="3s" begin="-0.42s" repeatCount="indefinite"/><rect x="280" y="40" width="13" height="320" fill="#CE1126"/></g><g opacity="0"><animate attributeName="opacity" from="0" to="1" begin="0.92s" dur="0.4s" fill="freeze"/><animateTransform attributeName="transform" type="translate" values="0 0;0 -5;0 0;0 5;0 0" dur="3s" begin="-0.56s" repeatCount="indefinite"/><rect x="292" y="40" width="13" height="320" fill="#CE1126"/></g><g opacity="0"><animate attributeName="opacity" from="0" to="1" begin="1s" dur="0.4s" fill="freeze"/><animateTransform attributeName="transform" type="translate" values="0 0;0 -5;0 0;0 5;0 0" dur="3s" begin="-0.7s" repeatCount="indefinite"/><rect x="304" y="40" width="13" height="320" fill="#CE1126"/></g><g opacity="0"><animate attributeName="opacity" from="0" to="1" begin="1.08s" dur="0.4s" fill="freeze"/><animateTransform attributeName="transform" type="translate" values="0 0;0 -5;0 0;0 5;0 0" dur="3s" begin="-0.84s" repeatCount="indefinite"/><rect x="316" y="40" width="13" height="112" fill="#00732F"/><rect x="316" y="152" width="13" height="76" fill="#F4F4F2"/><rect x="316" y="228" width="13" height="132" fill="#111111"/></g><g opacity="0"><animate attributeName="opacity" from="0" to="1" begin="1.16s" dur="0.4s" fill="freeze"/><animateTransform attributeName="transform" type="translate" values="0 0;0 -5;0 0;0 5;0 0" dur="3s" begin="-0.98s" repeatCount="indefinite"/><rect x="328" y="40" width="13" height="112" fill="#00732F"/><rect x="328" y="152" width="13" height="76" fill="#F4F4F2"/><rect x="328" y="228" width="13" height="132" fill="#111111"/></g><g opacity="0"><animate attributeName="opacity" from="0" to="1" begin="1.24s" dur="0.4s" fill="freeze"/><animateTransform attributeName="transform" type="translate" values="0 0;0 -5;0 0;0 5;0 0" dur="3s" begin="-1.12s" repeatCount="indefinite"/><rect x="340" y="40" width="13" height="112" fill="#00732F"/><rect x="340" y="152" width="13" height="76" fill="#F4F4F2"/><rect x="340" y="228" width="13" height="132" fill="#111111"/></g><g opacity="0"><animate attributeName="opacity" from="0" to="1" begin="1.32s" dur="0.4s" fill="freeze"/><animateTransform attributeName="transform" type="translate" values="0 0;0 -5;0 0;0 5;0 0" dur="3s" begin="-1.26s" repeatCount="indefinite"/><rect x="352" y="40" width="13" height="112" fill="#00732F"/><rect x="352" y="152" width="13" height="76" fill="#F4F4F2"/><rect x="352" y="228" width="13" height="132" fill="#111111"/></g><g opacity="0"><animate attributeName="opacity" from="0" to="1" begin="1.4s" dur="0.4s" fill="freeze"/><animateTransform attributeName="transform" type="translate" values="0 0;0 -5;0 0;0 5;0 0" dur="3s" begin="-1.4s" repeatCount="indefinite"/><rect x="364" y="40" width="13" height="112" fill="#00732F"/><rect x="364" y="152" width="13" height="76" fill="#F4F4F2"/><rect x="364" y="228" width="13" height="132" fill="#111111"/></g><g opacity="0"><animate attributeName="opacity" from="0" to="1" begin="1.48s" dur="0.4s" fill="freeze"/><animateTransform attributeName="transform" type="translate" values="0 0;0 -5;0 0;0 5;0 0" dur="3s" begin="-1.54s" repeatCount="indefinite"/><rect x="376" y="40" width="13" height="112" fill="#00732F"/><rect x="376" y="152" width="13" height="76" fill="#F4F4F2"/><rect x="376" y="228" width="13" height="132" fill="#111111"/></g><g opacity="0"><animate attributeName="opacity" from="0" to="1" begin="1.56s" dur="0.4s" fill="freeze"/><animateTransform attributeName="transform" type="translate" values="0 0;0 -5;0 0;0 5;0 0" dur="3s" begin="-1.68s" repeatCount="indefinite"/><rect x="388" y="40" width="13" height="112" fill="#00732F"/><rect x="388" y="152" width="13" height="76" fill="#F4F4F2"/><rect x="388" y="228" width="13" height="132" fill="#111111"/></g><g opacity="0"><animate attributeName="opacity" from="0" to="1" begin="1.64s" dur="0.4s" fill="freeze"/><animateTransform attributeName="transform" type="translate" values="0 0;0 -5;0 0;0 5;0 0" dur="3s" begin="-1.82s" repeatCount="indefinite"/><rect x="400" y="40" width="13" height="112" fill="#00732F"/><rect x="400" y="152" width="13" height="76" fill="#F4F4F2"/><rect x="400" y="228" width="13" height="132" fill="#111111"/></g><g opacity="0"><animate attributeName="opacity" from="0" to="1" begin="1.72s" dur="0.4s" fill="freeze"/><animateTransform attributeName="transform" type="translate" values="0 0;0 -5;0 0;0 5;0 0" dur="3s" begin="-1.96s" repeatCount="indefinite"/><rect x="412" y="40" width="13" height="112" fill="#00732F"/><rect x="412" y="152" width="13" height="76" fill="#F4F4F2"/><rect x="412" y="228" width="13" height="132" fill="#111111"/></g><g opacity="0"><animate attributeName="opacity" from="0" to="1" begin="1.8s" dur="0.4s" fill="freeze"/><animateTransform attributeName="transform" type="translate" values="0 0;0 -5;0 0;0 5;0 0" dur="3s" begin="-2.1s" repeatCount="indefinite"/><rect x="424" y="40" width="13" height="112" fill="#00732F"/><rect x="424" y="152" width="13" height="76" fill="#F4F4F2"/><rect x="424" y="228" width="13" height="132" fill="#111111"/></g></g><path d="M 359 80 C 296 80, 250 130, 250 195 C 250 260, 296 305, 355 305 C 386 305, 410 290, 417 270 C 424 254, 413 240, 402 234 C 386 226, 374 215, 374 195 C 374 175, 386 163, 402 155 C 415 148, 424 134, 417 118 C 409 96, 384 80, 359 80 Z" fill="none" stroke="#111111" stroke-width="2.5" stroke-linejoin="round" stroke-dasharray="720" stroke-dashoffset="720"><animate attributeName="stroke-dashoffset" from="720" to="0" begin="0s" dur="1.3s" fill="freeze"/></path><circle r="4.5" fill="#CE1126" opacity="0"><animate attributeName="opacity" values="0;1;1;0" keyTimes="0;0.15;0.8;1" dur="2.2s" begin="2.2s" repeatCount="indefinite"/><animateMotion dur="2.2s" begin="2.2s" repeatCount="indefinite" calcMode="linear" keyPoints="1;0" keyTimes="0;1"><mpath href="#art2"/></animateMotion></circle><circle r="4.5" fill="#CE1126" opacity="0"><animate attributeName="opacity" values="0;1;1;0" keyTimes="0;0.15;0.8;1" dur="2.2s" begin="3.3s" repeatCount="indefinite"/><animateMotion dur="2.2s" begin="3.3s" repeatCount="indefinite" calcMode="linear" keyPoints="1;0" keyTimes="0;1"><mpath href="#art2"/></animateMotion></circle><circle r="4.5" fill="#00732F" opacity="0"><animate attributeName="opacity" values="0;1;1;0" keyTimes="0;0.15;0.8;1" dur="2.6s" begin="2.6s" repeatCount="indefinite"/><animateMotion dur="2.6s" begin="2.6s" repeatCount="indefinite"><mpath href="#ure2"/></animateMotion></circle><circle r="4.5" fill="#00732F" opacity="0"><animate attributeName="opacity" values="0;1;1;0" keyTimes="0;0.15;0.8;1" dur="2.6s" begin="3.9s" repeatCount="indefinite"/><animateMotion dur="2.6s" begin="3.9s" repeatCount="indefinite"><mpath href="#ure2"/></animateMotion></circle></g></g></g><text x="340" y="356" text-anchor="middle" font-family="Helvetica Neue, Helvetica, Arial, sans-serif" font-size="17" font-weight="500" fill="#111111" opacity="0">UAE kidney health<animate attributeName="opacity" from="0" to="1" begin="2.5s" dur="0.6s" fill="freeze"/></text></svg>
