<svg xmlns="http://www.w3.org/2000/svg" width="249" height="261" viewBox="0 0 249 261" role="img"><title>UAE kidney logo</title><desc>A kidney silhouette filled with the United Arab Emirates flag, where the green, white and black stripes ripple as a continuous traveling wave. A red renal artery and a green ureter extend from the hilum, each carrying moving particles and ending in a round terminal.</desc><defs><clipPath id="kk"><path d="M 109 0 C 46 0, 0 50, 0 115 C 0 180, 46 225, 105 225 C 136 225, 160 210, 167 190 C 174 174, 163 160, 152 154 C 136 146, 124 135, 124 115 C 124 95, 136 83, 152 75 C 165 68, 174 54, 167 38 C 159 16, 134 0, 109 0 Z"/></clipPath><path id="ar" d="M 152 110 C 202 105, 226 80, 230 42"/><path id="ur" d="M 152 125 C 198 125, 224 150, 224 188 C 224 212, 214 228, 198 238"/></defs><g transform="translate(4,4)"><g transform="translate(124.5,126.5)"><g><animateTransform attributeName="transform" type="scale" values="1;1.02;1" keyTimes="0;0.5;1" calcMode="spline" keySplines=".4 0 .6 1;.4 0 .6 1" dur="3.6s" repeatCount="indefinite"/><g transform="translate(-124.5,-126.5)"><use href="#ar" fill="none" stroke="#CE1126" stroke-width="9" stroke-linecap="round" stroke-dasharray="105" stroke-dashoffset="105"><animate attributeName="stroke-dashoffset" from="105" to="0" begin="0.7s" dur="0.8s" fill="freeze"/></use><use href="#ur" fill="none" stroke="#00732F" stroke-width="9" stroke-linecap="round" stroke-dasharray="150" stroke-dashoffset="150"><animate attributeName="stroke-dashoffset" from="150" to="0" begin="0.85s" dur="0.9s" fill="freeze"/></use><circle cx="230" cy="42" r="11" fill="#CE1126" opacity="0"><animate attributeName="opacity" from="0" to="1" begin="1.6s" dur="0.4s" fill="freeze"/></circle><circle cx="198" cy="242" r="11" fill="#00732F" opacity="0"><animate attributeName="opacity" from="0" to="1" begin="1.75s" dur="0.4s" fill="freeze"/></circle><g clip-path="url(#kk)" opacity="0"><animate attributeName="opacity" from="0" to="1" begin="0.15s" dur="0.7s" fill="freeze"/><g><animateTransform attributeName="transform" type="translate" values="0 0;-60 0" dur="4s" calcMode="linear" repeatCount="indefinite"/><path fill="#00732F" d="M -100 -40 L 260 -40 L 260 83 C 250 83, 240 67, 230 67 C 220 67, 210 83, 200 83 C 190 83, 180 67, 170 67 C 160 67, 150 83, 140 83 C 130 83, 120 67, 110 67 C 100 67, 90 83, 80 83 C 70 83, 60 67, 50 67 C 40 67, 30 83, 20 83 C 10 83, 0 67, -10 67 C -20 67, -30 83, -40 83 C -50 83, -60 67, -70 67 C -80 67, -90 83, -100 83 Z"/><path fill="#F4F4F2" d="M -100 83 C -90 83, -80 67, -70 67 C -60 67, -50 83, -40 83 C -30 83, -20 67, -10 67 C 0 67, 10 83, 20 83 C 30 83, 40 67, 50 67 C 60 67, 70 83, 80 83 C 90 83, 100 67, 110 67 C 120 67, 130 83, 140 83 C 150 83, 160 67, 170 67 C 180 67, 190 83, 200 83 C 210 83, 220 67, 230 67 C 240 67, 250 83, 260 83 L 260 158 C 250 158, 240 142, 230 142 C 220 142, 210 158, 200 158 C 190 158, 180 142, 170 142 C 160 142, 150 158, 140 158 C 130 158, 120 142, 110 142 C 100 142, 90 158, 80 158 C 70 158, 60 142, 50 142 C 40 142, 30 158, 20 158 C 10 158, 0 142, -10 142 C -20 142, -30 158, -40 158 C -50 158, -60 142, -70 142 C -80 142, -90 158, -100 158 Z"/><path fill="#111111" d="M -100 158 C -90 158, -80 142, -70 142 C -60 142, -50 158, -40 158 C -30 158, -20 142, -10 142 C 0 142, 10 158, 20 158 C 30 158, 40 142, 50 142 C 60 142, 70 158, 80 158 C 90 158, 100 142, 110 142 C 120 142, 130 158, 140 158 C 150 158, 160 142, 170 142 C 180 142, 190 158, 200 158 C 210 158, 220 142, 230 142 C 240 142, 250 158, 260 158 L 260 280 L -100 280 Z"/></g><rect x="-20" y="-40" width="90" height="320" fill="#CE1126"/></g><circle r="4.5" fill="#CE1126" opacity="0"><animate attributeName="opacity" values="0;1;1;0" keyTimes="0;0.15;0.8;1" dur="2.2s" begin="1.8s" repeatCount="indefinite"/><animateMotion dur="2.2s" begin="1.8s" repeatCount="indefinite" calcMode="linear" keyPoints="1;0" keyTimes="0;1"><mpath href="#ar"/></animateMotion></circle><circle r="4.5" fill="#CE1126" opacity="0"><animate attributeName="opacity" values="0;1;1;0" keyTimes="0;0.15;0.8;1" dur="2.2s" begin="2.9s" repeatCount="indefinite"/><animateMotion dur="2.2s" begin="2.9s" repeatCount="indefinite" calcMode="linear" keyPoints="1;0" keyTimes="0;1"><mpath href="#ar"/></animateMotion></circle><circle r="4.5" fill="#00732F" opacity="0"><animate attributeName="opacity" values="0;1;1;0" keyTimes="0;0.15;0.8;1" dur="2.6s" begin="2.1s" repeatCount="indefinite"/><animateMotion dur="2.6s" begin="2.1s" repeatCount="indefinite"><mpath href="#ur"/></animateMotion></circle><circle r="4.5" fill="#00732F" opacity="0"><animate attributeName="opacity" values="0;1;1;0" keyTimes="0;0.15;0.8;1" dur="2.6s" begin="3.4s" repeatCount="indefinite"/><animateMotion dur="2.6s" begin="3.4s" repeatCount="indefinite"><mpath href="#ur"/></animateMotion></circle></g></g></g></g></svg>
